<svg xmlns="http://www.w3.org/2000/svg" width="2549" height="1636" viewBox="0 0 2549.0 1635.9">
<defs><linearGradient id="g" gradientUnits="objectBoundingBox" x1="0" y1="0" x2="1" y2="0"><stop offset="0" stop-color="#000000"/><stop offset="1" stop-color="#2ADA8D"/></linearGradient></defs>
<path fill="url(#g)" fill-rule="evenodd" d="M105.0,1232.6 L660.7,1112.1 L918.3,773.2 L990.3,702.8 L1038.1,704.3 L1051.9,730.7 L1192.7,1108.1 L1205.8,1116.0 L1399.0,922.0 L1491.5,856.6 L1551.9,862.9 L1783.5,941.1 L1911.0,939.1 L1955.1,906.6 L2004.0,844.1 L2181.2,564.5 L866.5,564.5 L858.0,545.3 L893.8,409.8 L2280.8,403.5 L2309.1,378.7 L2549.0,3.2 L452.7,0.0 L105.0,1232.6 Z M0.0,1633.5 L596.5,1635.9 L665.2,1420.0 L940.9,1080.0 L1100.4,1441.1 L1126.5,1464.4 L1154.7,1467.5 L1490.5,1094.3 L1760.5,1065.1 L1912.0,1026.2 L1713.5,1022.1 L1484.1,978.6 L1408.5,1039.7 L1159.1,1293.0 L965.1,898.9 L754.1,1158.5 L695.5,1205.0 L84.1,1346.0 L0.0,1633.5 Z"/>
</svg>
